<mxfile host="app.diagrams.net" agent="Mozilla/5.0 (Windows NT 10.0; Win64; x64) AppleWebKit/537.36 (KHTML, like Gecko) Chrome/137.0.0.0 Safari/537.36" version="27.1.4">
  <diagram name="Page-1" id="KBNTaRGzSsLHdw_23ge0">
    <mxGraphModel dx="1426" dy="743" grid="1" gridSize="10" guides="1" tooltips="1" connect="1" arrows="1" fold="1" page="1" pageScale="1" pageWidth="850" pageHeight="1100" math="0" shadow="0">
      <root>
        <mxCell id="0" />
        <mxCell id="1" parent="0" />
        <mxCell id="K6-dDIR_0_aQeqREviTG-4" style="edgeStyle=orthogonalEdgeStyle;rounded=0;orthogonalLoop=1;jettySize=auto;html=1;" edge="1" parent="1" source="K6-dDIR_0_aQeqREviTG-1" target="K6-dDIR_0_aQeqREviTG-2">
          <mxGeometry relative="1" as="geometry" />
        </mxCell>
        <mxCell id="K6-dDIR_0_aQeqREviTG-1" value="START" style="ellipse;whiteSpace=wrap;html=1;" vertex="1" parent="1">
          <mxGeometry x="330" y="50" width="140" height="70" as="geometry" />
        </mxCell>
        <mxCell id="K6-dDIR_0_aQeqREviTG-6" style="edgeStyle=orthogonalEdgeStyle;rounded=0;orthogonalLoop=1;jettySize=auto;html=1;entryX=0.5;entryY=0;entryDx=0;entryDy=0;" edge="1" parent="1" source="K6-dDIR_0_aQeqREviTG-2" target="K6-dDIR_0_aQeqREviTG-5">
          <mxGeometry relative="1" as="geometry" />
        </mxCell>
        <mxCell id="K6-dDIR_0_aQeqREviTG-2" value="A,B" style="shape=parallelogram;perimeter=parallelogramPerimeter;whiteSpace=wrap;html=1;fixedSize=1;" vertex="1" parent="1">
          <mxGeometry x="310" y="160" width="180" height="60" as="geometry" />
        </mxCell>
        <mxCell id="K6-dDIR_0_aQeqREviTG-8" style="edgeStyle=orthogonalEdgeStyle;rounded=0;orthogonalLoop=1;jettySize=auto;html=1;entryX=0.5;entryY=0;entryDx=0;entryDy=0;" edge="1" parent="1" source="K6-dDIR_0_aQeqREviTG-5" target="K6-dDIR_0_aQeqREviTG-7">
          <mxGeometry relative="1" as="geometry" />
        </mxCell>
        <mxCell id="K6-dDIR_0_aQeqREviTG-5" value="A&amp;gt;B&lt;div&gt;&lt;br&gt;&lt;/div&gt;&lt;div&gt;&lt;br&gt;&lt;/div&gt;" style="rhombus;whiteSpace=wrap;html=1;" vertex="1" parent="1">
          <mxGeometry x="320" y="280" width="160" height="80" as="geometry" />
        </mxCell>
        <mxCell id="K6-dDIR_0_aQeqREviTG-13" style="edgeStyle=orthogonalEdgeStyle;rounded=0;orthogonalLoop=1;jettySize=auto;html=1;" edge="1" parent="1" source="K6-dDIR_0_aQeqREviTG-7" target="K6-dDIR_0_aQeqREviTG-12">
          <mxGeometry relative="1" as="geometry" />
        </mxCell>
        <mxCell id="K6-dDIR_0_aQeqREviTG-7" value="A IS GREATER&amp;nbsp;" style="shape=parallelogram;perimeter=parallelogramPerimeter;whiteSpace=wrap;html=1;fixedSize=1;" vertex="1" parent="1">
          <mxGeometry x="160" y="400" width="120" height="60" as="geometry" />
        </mxCell>
        <mxCell id="K6-dDIR_0_aQeqREviTG-14" style="edgeStyle=orthogonalEdgeStyle;rounded=0;orthogonalLoop=1;jettySize=auto;html=1;entryX=0.5;entryY=0;entryDx=0;entryDy=0;" edge="1" parent="1" source="K6-dDIR_0_aQeqREviTG-9" target="K6-dDIR_0_aQeqREviTG-12">
          <mxGeometry relative="1" as="geometry" />
        </mxCell>
        <mxCell id="K6-dDIR_0_aQeqREviTG-9" value="B IS GREATER" style="shape=parallelogram;perimeter=parallelogramPerimeter;whiteSpace=wrap;html=1;fixedSize=1;" vertex="1" parent="1">
          <mxGeometry x="520" y="400" width="120" height="60" as="geometry" />
        </mxCell>
        <mxCell id="K6-dDIR_0_aQeqREviTG-11" style="edgeStyle=orthogonalEdgeStyle;rounded=0;orthogonalLoop=1;jettySize=auto;html=1;entryX=0.65;entryY=0;entryDx=0;entryDy=0;entryPerimeter=0;" edge="1" parent="1" source="K6-dDIR_0_aQeqREviTG-5" target="K6-dDIR_0_aQeqREviTG-9">
          <mxGeometry relative="1" as="geometry" />
        </mxCell>
        <mxCell id="K6-dDIR_0_aQeqREviTG-17" style="edgeStyle=orthogonalEdgeStyle;rounded=0;orthogonalLoop=1;jettySize=auto;html=1;entryX=0.5;entryY=0;entryDx=0;entryDy=0;" edge="1" parent="1" source="K6-dDIR_0_aQeqREviTG-12" target="K6-dDIR_0_aQeqREviTG-15">
          <mxGeometry relative="1" as="geometry" />
        </mxCell>
        <mxCell id="K6-dDIR_0_aQeqREviTG-12" value="" style="ellipse;whiteSpace=wrap;html=1;aspect=fixed;" vertex="1" parent="1">
          <mxGeometry x="370" y="490" width="60" height="60" as="geometry" />
        </mxCell>
        <mxCell id="K6-dDIR_0_aQeqREviTG-15" value="STOP" style="ellipse;whiteSpace=wrap;html=1;" vertex="1" parent="1">
          <mxGeometry x="340" y="610" width="120" height="70" as="geometry" />
        </mxCell>
      </root>
    </mxGraphModel>
  </diagram>
</mxfile>
